PathFileType	4	(X/Y/Z)	pose_F01_0-97.trc
DataRate	CameraRate	NumFrames	NumMarkers	Units	OrigDataRate	OrigDataStartFrame	OrigNumFrames
60	60	9	21	m	60	24	97
Frame#	Time	CHip			RHip			RKnee			RAnkle			RBigToe			RSmallToe			RHeel			LHip			LKnee			LAnkle			LBigToe			LSmallToe			LHeel			Neck			Nose			RShoulder			RElbow			RWrist			LShoulder			LElbow			LWrist			
		X1	Y1	Z1	X2	Y2	Z2	X3	Y3	Z3	X4	Y4	Z4	X5	Y5	Z5	X6	Y6	Z6	X7	Y7	Z7	X8	Y8	Z8	X9	Y9	Z9	X10	Y10	Z10	X11	Y11	Z11	X12	Y12	Z12	X13	Y13	Z13	X14	Y14	Z14	X15	Y15	Z15	X16	Y16	Z16	X17	Y17	Z17	X18	Y18	Z18	X19	Y19	Z19	X20	Y20	Z20	X21	Y21	Z21	
24	0.4	-0.20943453040217835	1.8268785928988807	-0.49056475813637396	-0.22641273126300032	1.823771278706664	-0.4404488128953865	-0.24061939341776772	1.7048053704829917	-0.48250550625119953	-0.1940442683394765	1.6101822948247062	-0.4928169137969167	-0.22831116457255318	1.567060352269296	-0.5141530228023312	-0.20272888373259196	1.584760839352838	-0.5259624142377546				-0.19198585210403987	1.8299259501828196	-0.523715019713004	-0.20125046334821595	1.7118226371307377	-0.5395236521479289	-0.20234992877344518	1.5946956472736604	-0.5124660534315946	-0.1942363430344126	1.575066278983264	-0.5887338740353663	-0.18874887815438746	1.5835730443100386	-0.591209306477276	-0.21165752142326943	1.5954549016825967	-0.4906135461266156	-1.6852920705013765	1.8852976954332452	1.0978116933412736	-0.21825681523782978	2.0275603877910795	-0.6099398821494209	-1.754992802798065	1.8868891989092016	1.2020603326014678	-0.23992836789826558	1.8958304910828563	-0.41191355292100323	-0.25497024355036363	1.8701044241498304	-0.5243072470700749	-1.5798429871902786	1.8842072675174357	0.9433407900943116	-0.16980038903941813	1.9124920086109622	-0.6196060943546936	-1.3216504225145216	1.8257193389573023	0.5405832474620499
25	0.4166666666666667	-0.2115064459074073	1.8277480229967153	-0.48862453313289406	-0.22772385166417194	1.8242645015048928	-0.44341699437851134	-0.240302469317222	1.707354046065146	-0.47868973547766136	-0.1940442683394765	1.6101822948247062	-0.4928169137969167	-0.22831116457255318	1.567060352269296	-0.5141530228023312	-0.20272888373259196	1.584760839352838	-0.5259624142377546				-0.19279894948020948	1.8313518049116637	-0.527126897384249	-0.20262586215404946	1.713706138639909	-0.5339069728854811	-0.20418701921660365	1.5937242151401587	-0.5104432675980533	-0.19608758367025994	1.573661058526491	-0.5869260222831959	-0.1886161125343526	1.5822895740982208	-0.5915189654468366	-0.21522616269988876	1.5904912608530413	-0.4944635686626734	-1.6604882507540866	1.885197604222377	1.0577525643914694	-0.21616984531980554	2.0278400065119606	-0.612124213334633	-1.7456713884806272	1.8889525149943533	1.1859100262880675	-0.23948632168834216	1.898675296298726	-0.40376423583264	-0.24497952697421496	1.8637898155253816	-0.48480993567704084	-1.5562399282462667	1.8806865600512035	0.9100610870653253	-0.16599709813782776	1.915639926210634	-0.6063304593530402	-1.2682589987229396	1.8182940227494928	0.4738663219524754
26	0.43333333333333335	-0.21435030783271217	1.8277665960627287	-0.48084804792770625	-0.23043332279843454	1.8242149699538133	-0.435847902746184	-0.2369966396081406	1.7053011409487384	-0.46881036438879703	-0.1940442683394765	1.6101822948247062	-0.4928169137969167	-0.22831116457255318	1.567060352269296	-0.5141530228023312	-0.20272888373259196	1.584760839352838	-0.5259624142377546				-0.19587337626198456	1.8310160212698985	-0.5194020725771838	-0.20268432486851146	1.7120868012312274	-0.5336288488376119	-0.20208858709888372	1.5961451582478245	-0.5130401695468999	-0.18932878367346168	1.5779617635136196	-0.5944249258117702	-0.18598890587042702	1.5856817895500874	-0.5945509921764761	-0.21131636024402303	1.596494386751671	-0.4910972023855187	-1.6696113467993012	1.8855861285505215	1.0740741091695216	-0.2161316957796895	2.0280522612308727	-0.6122024290644019	-1.743636396584918	1.8892750394099305	1.1834297673369158	-0.24344299695052635	1.9008201500248652	-0.40826193709216513	-0.2394496607560512	1.8583001227349174	-0.5024121734355794	-1.5665638204338546	1.882746897764757	0.9281652220340295	-0.16464968936757796	1.9126144258396414	-0.591514947020883	-1.2275415886003362	1.8133651289229036	0.4136101130814944
27	0.45	-0.2165370299167778	1.828564920127197	-0.47870453267815116	-0.23252607026798872	1.825244372291931	-0.4337360613066143	-0.236759284328683	1.7038672797618069	-0.4598613364278853	-0.1940442683394765	1.6101822948247062	-0.4928169137969167	-0.22831116457255318	1.567060352269296	-0.5141530228023312	-0.20272888373259196	1.584760839352838	-0.5259624142377546				-0.19776483199830835	1.8316197670830927	-0.5174100704557151	-0.19773676043161928	1.717591071304089	-0.5570154971611904	-0.20071836176047245	1.60224630467003	-0.511283179414437	-0.18854298312487427	1.580290324683414	-0.5956046131077682	-0.18516712505626928	1.590429679531218	-0.596299369323964	-0.2086110752218667	1.598538147645673	-0.48553460452926417	-1.6681525153968213	1.8861985058531114	1.0722636339737412	-0.21613856082004082	2.0277959060269986	-0.6122045109572074	-1.7396407506913059	1.8876090487750414	1.1782904371246883	-0.25110433357624873	1.8956745003538553	-0.40745053833689043	-0.24480095538374666	1.852135070579602	-0.524303946915185	-1.5684898899043613	1.8851771422403103	0.9308937391867009	-0.16661526364138332	1.9069432122525898	-0.5889422537457321	-1.1198095794672602	1.8204087439861978	0.30557865323580724
28	0.4666666666666667	-0.21863182564235192	1.8282126873892246	-0.47624144852057515	-0.2327340488466128	1.8249837609628279	-0.4333796196137291	-0.2345810976122453	1.7053696780247587	-0.462513783858463	-0.1940442683394765	1.6101822948247062	-0.4928169137969167	-0.22831116457255318	1.567060352269296	-0.5141530228023312	-0.20272888373259196	1.584760839352838	-0.5259624142377546				-0.19800063947601906	1.8308918645744818	-0.5170722638037288	-0.1930531874656385	1.722115684350176	-0.5712561521927039	-0.20058887518743496	1.6110251740173402	-0.5120079874911013	-0.18249121383214228	1.5848095422385005	-0.5986736706446131	-0.18142671138548622	1.5930635145767678	-0.5965455367444386	-0.208640253290206	1.6076343097078711	-0.48663361704126873	-1.6709116717028283	1.8883295007380458	1.075706086004839	-0.2139921596784006	2.028961967535498	-0.6141505917131153	-1.7423991810469064	1.8898576560335725	1.181820473549487	-0.25404634735809095	1.9020914413320902	-0.40062135323668996	-0.24524448699075832	1.853112835076063	-0.526038377430683	-1.5675575205388441	1.885928529242655	0.9293103905475849	-0.1658433021097169	1.9066598264733605	-0.5856297071347053	-1.0120775703341844	1.827452359049492	0.19754719339012
29	0.48333333333333334	-0.2146470614480055	1.8283237749522174	-0.4806856812920879	-0.2305697129389982	1.8267671523379425	-0.43576930390112956	-0.2358080155177058	1.7039734648544669	-0.4655036537118208	-0.1940442683394765	1.6101822948247062	-0.4928169137969167	-0.22831116457255318	1.567060352269296	-0.5141530228023312	-0.20272888373259196	1.584760839352838	-0.5259624142377546				-0.19687251742182169	1.8316833604153884	-0.522647478397631	-0.19558657114301764	1.7196972717953112	-0.5683718055403676	-0.19617014543103015	1.609780656795655	-0.5165004311348917	-0.17833210332424226	1.58598507334175	-0.6028389714287219	-0.17636233262302203	1.59445341163496	-0.5975804242865004	-0.20241395447578847	1.6086079773489377	-0.49229311543178556	-1.6634073664629554	1.8852436341090806	1.0659823263937886	-0.2118591370108947	2.029024505180254	-0.6164030984627084	-1.749712794484808	1.8881320651405045	1.195661780738623	-0.26024532275733825	1.8949644835534145	-0.4107913833796822	-0.24568801859776998	1.8540905995725239	-0.5277728079461811	-1.5566978228325445	1.8812406751433954	0.9151028836732668	-0.16592131115078512	1.904303543513342	-0.5853917762030878	-0.9043455612011084	1.8344959741127862	0.08951573354443276
30	0.5	-0.20648365611137984	1.827288248775806	-0.4806609633658093	-0.22348894794486948	1.8223868127227585	-0.43864424719742856	-0.23633540270785663	1.7054466273435944	-0.48275365645996543	-0.1940442683394765	1.6101822948247062	-0.4928169137969167	-0.22831116457255318	1.567060352269296	-0.5141530228023312	-0.20272888373259196	1.584760839352838	-0.5259624142377546				-0.19197296546790932	1.8303287673835784	-0.5236133776583369	-0.1953717734455478	1.7179243782414644	-0.5682576046352656	-0.19723535698277977	1.6075679359484487	-0.5193363162154163	-0.1814774267501351	1.5860810262397924	-0.6040257481916209	-0.178460271797166	1.5949969889927884	-0.6041130362719295	-0.20261169865895484	1.6005651983650309	-0.5050651888807776	-0.2109431408793785	1.9684570509060986	-0.5355870048818334	-0.20974942923893958	2.0269036290288547	-0.6185370942714509	-0.23583870770149468	1.972455614420384	-0.48433824246972984	-0.25657202606253543	1.8956589189888904	-0.4235663776252395	-0.24613155020478164	1.855068364068985	-0.5295072384616791	-0.18225846899184098	1.9691512294300155	-0.5875912522134233	-0.165714422900743	1.9012955324035317	-0.593359738301304	-0.7966135520680324	1.8415395891760804	-0.01851572630125442
31	0.5166666666666667	-0.20137263142410639	1.8279121421042746	-0.49086179513115696	-0.2155591938765557	1.8237612901035807	-0.4476504156330763	-0.22898022965963336	1.7134513928877035	-0.49611364543076647	-0.1940442683394765	1.6101822948247062	-0.4928169137969167	-0.22831116457255318	1.567060352269296	-0.5141530228023312	-0.20272888373259196	1.584760839352838	-0.5259624142377546				-0.1864512200344016	1.831323167717508	-0.5341494799919068	-0.19325939820584428	1.7175090759775942	-0.5706770980701892	-0.19504307531813142	1.6072499470235648	-0.5215597565737067	-0.17963483662120006	1.5846038387336951	-0.6057169494181985	-0.17642277529753328	1.592950099591184	-0.6058465952922207	-0.20316463338448915	1.6033199421411153	-0.5051502640712805	-0.20367479792292265	1.9660908175428846	-0.5473583742337199	-0.20635681887030233	2.0232480424762316	-0.625516941190095	-0.22848781275073876	1.9659132179775038	-0.48609481454646597	-0.2537554767968401	1.8959833744594612	-0.42607420979875055	-0.24657508181179327	1.856046128565446	-0.5312416689771772	-0.17570707673752287	1.9670866550130244	-0.6028119944830207	-0.16071309928277122	1.896752059932256	-0.606025635994653	-0.6888815429349565	1.8485832042393746	-0.1265471861469416
32	0.5333333333333333	-0.20135482726188136	1.8258503710618648	-0.4906422205449582	-0.21536850181861378	1.8230382886315228	-0.4476024132412922	-0.22427097929065412	1.7118017092764728	-0.5012566206585236	-0.1940442683394765	1.6101822948247062	-0.4928169137969167	-0.22831116457255318	1.567060352269296	-0.5141530228023312	-0.20272888373259196	1.584760839352838	-0.5259624142377546				-0.18451032571901008	1.8300499015047085	-0.5361821342764794	-0.1941602244675492	1.7179259381586616	-0.5738310673139141	-0.1929495454068811	1.6068159461293587	-0.5240224053627635	-0.18020212418898235	1.586051277071923	-0.6094997508551346	-0.17704550401501581	1.594458158876225	-0.6095459412150069	-0.20449103217924358	1.6052866042960723	-0.5087821440007643	-0.20013491997819027	1.966051837741881	-0.5545672003222378	-0.20282147020069438	2.0171122797366006	-0.6312659855734728	-0.2252946154899757	1.9651211317279451	-0.49342248299231684	-0.2509389275311448	1.8963078299300318	-0.4285820419722616	-0.24701861341880493	1.857023893061907	-0.5329760994926752	-0.17351728620484358	1.9659833979800991	-0.615689566849351	-0.1584548277695955	1.8958118626035088	-0.6081987451113333	-0.5811495338018806	1.8556268193026688	-0.2345786459926289
